<svg width="266" height="78" viewBox="0 0 266 78" fill="none" xmlns="http://www.w3.org/2000/svg">
<g filter="url(#filter0_d_1_26)">
<path d="M169.318 25.589C169.318 27.3857 168.861 29.1007 167.946 30.734C167.064 32.3673 165.855 33.8047 164.32 35.046C162.817 36.2547 161.037 37.2183 158.979 37.937C156.954 38.6557 154.798 39.015 152.511 39.015C151.694 39.015 151.041 38.917 150.551 38.721C150.094 38.4923 149.571 38.0677 148.983 37.447C147.35 41.0077 146.01 44.2907 144.965 47.296C143.952 50.2687 143.152 53.1597 142.564 55.969C141.323 55.675 140.31 55.1523 139.526 54.401C138.742 53.6823 138.023 52.7677 137.37 51.657C137.697 51.0363 138.089 50.2197 138.546 49.207C139.003 48.1943 139.559 46.953 140.212 45.483C140.865 43.9803 141.617 42.2 142.466 40.142C143.348 38.0513 144.377 35.6177 145.553 32.841C146.076 31.567 146.533 30.4563 146.925 29.509C147.317 28.5617 147.66 27.6797 147.954 26.863C148.248 26.0137 148.509 25.1807 148.738 24.364C148.999 23.5473 149.261 22.649 149.522 21.669C147.987 22.159 146.566 22.7307 145.259 23.384C143.985 24.0373 142.923 24.7233 142.074 25.442C141.78 25.246 141.47 24.952 141.143 24.56C140.849 24.168 141.404 23.4983 141.143 23.041C140.882 22.551 140.5 21.816 139.624 21.816C139.428 21.326 139.314 20.885 139.281 20.493C140.228 19.8397 141.404 19.2353 142.809 18.68C144.214 18.1247 145.716 17.651 147.317 17.259C148.918 16.8343 150.567 16.5077 152.266 16.279C153.997 16.0503 155.647 15.936 157.215 15.936C159.077 15.936 160.759 16.181 162.262 16.671C163.765 17.1283 165.039 17.7817 166.084 18.631C167.129 19.4803 167.93 20.493 168.485 21.669C169.04 22.845 169.318 24.1517 169.318 25.589ZM160.596 19.709C159.355 19.709 158.081 19.807 156.774 20.003L157.362 20.885C157.035 21.3097 156.627 21.9467 156.137 22.796C155.647 23.6453 155.108 24.6743 154.52 25.883C153.932 27.059 153.279 28.382 152.56 29.852C151.874 31.322 151.139 32.8737 150.355 34.507C152.903 34.507 155.222 34.2783 157.313 33.821C159.404 33.331 161.184 32.6777 162.654 31.861C164.157 31.0117 165.316 30.0317 166.133 28.921C166.982 27.8103 167.407 26.618 167.407 25.344C167.407 23.6453 166.835 22.2897 165.692 21.277C164.549 20.2317 162.85 19.709 160.596 19.709Z" fill="#AB7B60"/>
<path d="M171.67 53.715C169.808 53.519 168.322 52.7023 167.211 51.265C166.1 49.8277 165.545 47.9983 165.545 45.777C165.545 44.4703 165.741 43.1147 166.133 41.71C166.525 40.3053 167.08 38.9497 167.799 37.643C168.518 36.3037 169.367 35.046 170.347 33.87C171.327 32.694 172.389 31.6813 173.532 30.832C175.329 29.4927 177.011 28.823 178.579 28.823C179.624 29.3783 180.653 30.538 181.666 32.302C181.829 32.302 181.976 32.302 182.107 32.302C182.238 32.2693 182.385 32.253 182.548 32.253C184.279 32.253 185.145 33.7883 185.145 36.859C185.145 38.917 184.802 40.877 184.116 42.739C183.463 44.5683 182.532 46.2343 181.323 47.737C180.147 49.2397 178.726 50.5137 177.06 51.559C175.427 52.5717 173.63 53.2903 171.67 53.715ZM174.169 38.28C173.614 39.0313 173.091 39.848 172.601 40.73C172.111 41.612 171.686 42.5103 171.327 43.425C170.968 44.307 170.69 45.1727 170.494 46.022C170.298 46.8387 170.2 47.5737 170.2 48.227C170.2 49.011 170.331 49.7623 170.592 50.481C170.853 51.1997 171.147 51.608 171.474 51.706C172.944 51.3793 174.283 50.775 175.492 49.893C176.733 48.9783 177.795 47.8513 178.677 46.512C179.592 45.1727 180.294 43.6537 180.784 41.955C181.307 40.2563 181.568 38.4433 181.568 36.516C181.568 35.6667 181.519 34.997 181.421 34.507C181.323 34.017 181.16 33.5923 180.931 33.233C179.494 33.6577 178.203 34.3437 177.06 35.291C175.949 36.2383 174.986 37.2347 174.169 38.28Z" fill="#AB7B60"/>
<path d="M189.439 33.233C189.276 33.037 189.129 32.6287 188.998 32.008C188.868 31.3547 188.802 30.7993 188.802 30.342C189.652 30.4073 190.468 30.4727 191.252 30.538C192.036 30.5707 192.755 30.6033 193.408 30.636C193.898 29.656 194.421 28.6923 194.976 27.745C195.564 26.765 196.12 25.883 196.642 25.099C197.198 24.2823 197.704 23.5963 198.161 23.041C198.651 22.4857 199.027 22.1263 199.288 21.963C199.615 21.963 200.023 22.0283 200.513 22.159C201.036 22.257 201.559 22.404 202.081 22.6C202.604 22.7633 203.078 22.943 203.502 23.139C203.927 23.335 204.221 23.531 204.384 23.727C203.404 24.9683 202.555 26.128 201.836 27.206C201.15 28.2513 200.399 29.46 199.582 30.832C200.236 30.832 200.889 30.8157 201.542 30.783C202.228 30.7503 202.914 30.7013 203.6 30.636C203.764 30.7993 203.894 31.0117 203.992 31.273C204.09 31.5017 204.139 31.7467 204.139 32.008C202.539 32.596 200.595 32.9227 198.308 32.988C197.492 34.556 196.757 36.124 196.103 37.692C195.483 39.2273 194.944 40.7137 194.486 42.151C194.062 43.5883 193.719 44.944 193.457 46.218C193.229 47.492 193.114 48.6353 193.114 49.648C193.114 51.0853 193.653 51.8857 194.731 52.049C195.711 51.9183 196.642 51.6733 197.524 51.314C198.406 50.9547 199.19 50.4973 199.876 49.942C200.072 50.236 200.187 50.481 200.219 50.677C200.023 50.971 199.68 51.314 199.19 51.706C198.733 52.098 198.227 52.4737 197.671 52.833C197.116 53.225 196.577 53.5517 196.054 53.813C195.532 54.0743 195.14 54.2213 194.878 54.254C194.062 54.2213 193.245 54.0417 192.428 53.715C191.612 53.3883 190.86 52.98 190.174 52.49C189.521 52 188.982 51.461 188.557 50.873C188.133 50.2523 187.92 49.648 187.92 49.06C187.92 48.276 188.018 47.296 188.214 46.12C188.443 44.9113 188.753 43.6047 189.145 42.2C189.537 40.7953 189.995 39.3253 190.517 37.79C191.04 36.2547 191.612 34.7357 192.232 33.233H189.439Z" fill="#AB7B60"/>
<path d="M220.19 32.204C220.517 32.204 220.892 32.2693 221.317 32.4C221.774 32.498 222.183 32.645 222.542 32.841C222.901 33.0043 223.195 33.184 223.424 33.38C223.685 33.576 223.816 33.7557 223.816 33.919C223.163 35.291 222.558 36.6793 222.003 38.084C221.448 39.456 220.974 40.779 220.582 42.053C220.19 43.327 219.88 44.5193 219.651 45.63C219.455 46.7407 219.357 47.7043 219.357 48.521C219.357 49.4357 219.455 50.2033 219.651 50.824C219.847 51.412 220.174 51.8367 220.631 52.098C220.239 52.3593 219.733 52.5717 219.112 52.735C218.491 52.8983 217.936 52.98 217.446 52.98C215.682 52.98 214.8 51.7713 214.8 49.354C214.8 47.492 215.421 44.944 216.662 41.71C216.009 43.2127 215.257 44.6337 214.408 45.973C213.559 47.2797 212.693 48.4393 211.811 49.452C210.929 50.4647 210.031 51.2977 209.116 51.951C208.234 52.5717 207.417 52.9473 206.666 53.078C205.457 53.0127 204.477 52.441 203.726 51.363C202.975 50.2523 202.599 48.8477 202.599 47.149C202.599 45.3197 202.991 43.3923 203.775 41.367C204.559 39.3417 205.555 37.4633 206.764 35.732C208.005 34.0007 209.345 32.5633 210.782 31.42C212.219 30.244 213.608 29.6233 214.947 29.558C215.274 29.656 215.633 29.852 216.025 30.146C216.45 30.44 216.842 30.783 217.201 31.175C217.593 31.567 217.92 31.9753 218.181 32.4C218.442 32.792 218.589 33.135 218.622 33.429C217.315 33.625 215.96 34.262 214.555 35.34C213.183 36.418 211.925 37.7247 210.782 39.26C209.671 40.7627 208.757 42.3797 208.038 44.111C207.319 45.8423 206.96 47.4593 206.96 48.962C206.96 49.5827 207.189 49.9747 207.646 50.138C208.593 49.942 209.688 49.1417 210.929 47.737C212.17 46.2997 213.673 44.0947 215.437 41.122C215.764 40.534 216.123 39.8807 216.515 39.162C216.94 38.4433 217.364 37.692 217.789 36.908C218.214 36.124 218.622 35.34 219.014 34.556C219.439 33.7393 219.831 32.9553 220.19 32.204Z" fill="#AB7B60"/>
<path d="M227.889 33.233C227.726 33.037 227.579 32.6287 227.448 32.008C227.317 31.3547 227.252 30.7993 227.252 30.342C228.101 30.4073 228.918 30.4727 229.702 30.538C230.486 30.5707 231.205 30.6033 231.858 30.636C232.348 29.656 232.871 28.6923 233.426 27.745C234.014 26.765 234.569 25.883 235.092 25.099C235.647 24.2823 236.154 23.5963 236.611 23.041C237.101 22.4857 237.477 22.1263 237.738 21.963C238.065 21.963 238.473 22.0283 238.963 22.159C239.486 22.257 240.008 22.404 240.531 22.6C241.054 22.7633 241.527 22.943 241.952 23.139C242.377 23.335 242.671 23.531 242.834 23.727C241.854 24.9683 241.005 26.128 240.286 27.206C239.6 28.2513 238.849 29.46 238.032 30.832C238.685 30.832 239.339 30.8157 239.992 30.783C240.678 30.7503 241.364 30.7013 242.05 30.636C242.213 30.7993 242.344 31.0117 242.442 31.273C242.54 31.5017 242.589 31.7467 242.589 32.008C240.988 32.596 239.045 32.9227 236.758 32.988C235.941 34.556 235.206 36.124 234.553 37.692C233.932 39.2273 233.393 40.7137 232.936 42.151C232.511 43.5883 232.168 44.944 231.907 46.218C231.678 47.492 231.564 48.6353 231.564 49.648C231.564 51.0853 232.103 51.8857 233.181 52.049C234.161 51.9183 235.092 51.6733 235.974 51.314C236.856 50.9547 237.64 50.4973 238.326 49.942C238.522 50.236 238.636 50.481 238.669 50.677C238.473 50.971 238.13 51.314 237.64 51.706C237.183 52.098 236.676 52.4737 236.121 52.833C235.566 53.225 235.027 53.5517 234.504 53.813C233.981 54.0743 233.589 54.2213 233.328 54.254C232.511 54.2213 231.695 54.0417 230.878 53.715C230.061 53.3883 229.31 52.98 228.624 52.49C227.971 52 227.432 51.461 227.007 50.873C226.582 50.2523 226.37 49.648 226.37 49.06C226.37 48.276 226.468 47.296 226.664 46.12C226.893 44.9113 227.203 43.6047 227.595 42.2C227.987 40.7953 228.444 39.3253 228.967 37.79C229.49 36.2547 230.061 34.7357 230.682 33.233H227.889Z" fill="#AB7B60"/>
<path d="M247.517 53.715C245.655 53.519 244.168 52.7023 243.058 51.265C241.947 49.8277 241.392 47.9983 241.392 45.777C241.392 44.4703 241.588 43.1147 241.98 41.71C242.372 40.3053 242.927 38.9497 243.646 37.643C244.364 36.3037 245.214 35.046 246.194 33.87C247.174 32.694 248.235 31.6813 249.379 30.832C251.175 29.4927 252.858 28.823 254.426 28.823C255.471 29.3783 256.5 30.538 257.513 32.302C257.676 32.302 257.823 32.302 257.954 32.302C258.084 32.2693 258.231 32.253 258.395 32.253C260.126 32.253 260.992 33.7883 260.992 36.859C260.992 38.917 260.649 40.877 259.963 42.739C259.309 44.5683 258.378 46.2343 257.17 47.737C255.994 49.2397 254.573 50.5137 252.907 51.559C251.273 52.5717 249.477 53.2903 247.517 53.715ZM250.016 38.28C249.46 39.0313 248.938 39.848 248.448 40.73C247.958 41.612 247.533 42.5103 247.174 43.425C246.814 44.307 246.537 45.1727 246.341 46.022C246.145 46.8387 246.047 47.5737 246.047 48.227C246.047 49.011 246.177 49.7623 246.439 50.481C246.7 51.1997 246.994 51.608 247.321 51.706C248.791 51.3793 250.13 50.775 251.339 49.893C252.58 48.9783 253.642 47.8513 254.524 46.512C255.438 45.1727 256.141 43.6537 256.631 41.955C257.153 40.2563 257.415 38.4433 257.415 36.516C257.415 35.6667 257.366 34.997 257.268 34.507C257.17 34.017 257.006 33.5923 256.778 33.233C255.34 33.6577 254.05 34.3437 252.907 35.291C251.796 36.2383 250.832 37.2347 250.016 38.28Z" fill="#AB7B60"/>
<path d="M17.5454 42.396C17.5454 40.1093 17.8067 37.8717 18.3294 35.683C18.8847 33.4617 19.6524 31.371 20.6324 29.411C21.6124 27.4183 22.7721 25.6053 24.1114 23.972C25.4834 22.306 26.9697 20.8687 28.5704 19.66C30.2037 18.4513 31.9351 17.5203 33.7644 16.867C35.5937 16.181 37.4721 15.838 39.3994 15.838C41.6534 15.838 43.4011 16.3117 44.6424 17.259C45.9164 18.2063 46.5534 19.5293 46.5534 21.228C46.5534 21.8813 46.4554 22.551 46.2594 23.237C46.0961 23.923 45.8347 24.609 45.4754 25.295C45.1487 25.9483 44.7567 26.5853 44.2994 27.206C43.8421 27.8267 43.3357 28.3657 42.7804 28.823C41.9311 28.6923 41.1961 28.3167 40.5754 27.696C39.9547 27.0427 39.5627 26.2913 39.3994 25.442C40.5427 24.4947 41.4411 23.5147 42.0944 22.502C42.7804 21.4567 43.1234 20.5093 43.1234 19.66C43.1234 18.2227 42.2251 17.504 40.4284 17.504C39.6771 17.504 38.8931 17.6673 38.0764 17.994C37.2924 18.288 36.4921 18.7127 35.6754 19.268C34.8587 19.8233 34.0584 20.493 33.2744 21.277C32.5231 22.061 31.8207 22.9267 31.1674 23.874C26.6267 30.4073 24.3564 37.0877 24.3564 43.915C24.3564 46.3323 24.7321 48.276 25.4834 49.746C26.2347 51.216 27.2311 52.0817 28.4724 52.343C29.8771 52.0163 31.6574 51.118 33.8134 49.648C35.9694 48.178 38.3214 46.267 40.8694 43.915C41.1961 44.2417 41.3921 44.5847 41.4574 44.944C40.5101 46.1853 39.5301 47.3777 38.5174 48.521C37.5047 49.6643 36.4921 50.7097 35.4794 51.657C34.4994 52.6043 33.5194 53.4373 32.5394 54.156C31.5921 54.8747 30.7101 55.43 29.8934 55.822C25.8427 55.7567 22.7721 54.597 20.6814 52.343C18.5907 50.089 17.5454 46.7733 17.5454 42.396Z" fill="#252525"/>
<path d="M50.4554 53.715C48.5934 53.519 47.1071 52.7023 45.9964 51.265C44.8858 49.8277 44.3304 47.9983 44.3304 45.777C44.3304 44.4703 44.5264 43.1147 44.9184 41.71C45.3104 40.3053 45.8658 38.9497 46.5844 37.643C47.3031 36.3037 48.1524 35.046 49.1324 33.87C50.1124 32.694 51.1741 31.6813 52.3174 30.832C54.1141 29.4927 55.7964 28.823 57.3644 28.823C58.4098 29.3783 59.4388 30.538 60.4514 32.302C60.6148 32.302 60.7618 32.302 60.8924 32.302C61.0231 32.2693 61.1701 32.253 61.3334 32.253C63.0648 32.253 63.9304 33.7883 63.9304 36.859C63.9304 38.917 63.5874 40.877 62.9014 42.739C62.2481 44.5683 61.3171 46.2343 60.1084 47.737C58.9324 49.2397 57.5114 50.5137 55.8454 51.559C54.2121 52.5717 52.4154 53.2903 50.4554 53.715ZM52.9544 38.28C52.3991 39.0313 51.8764 39.848 51.3864 40.73C50.8964 41.612 50.4718 42.5103 50.1124 43.425C49.7531 44.307 49.4754 45.1727 49.2794 46.022C49.0834 46.8387 48.9854 47.5737 48.9854 48.227C48.9854 49.011 49.1161 49.7623 49.3774 50.481C49.6388 51.1997 49.9328 51.608 50.2594 51.706C51.7294 51.3793 53.0688 50.775 54.2774 49.893C55.5188 48.9783 56.5804 47.8513 57.4624 46.512C58.3771 45.1727 59.0794 43.6537 59.5694 41.955C60.0921 40.2563 60.3534 38.4433 60.3534 36.516C60.3534 35.6667 60.3044 34.997 60.2064 34.507C60.1084 34.017 59.9451 33.5923 59.7164 33.233C58.2791 33.6577 56.9888 34.3437 55.8454 35.291C54.7348 36.2383 53.7711 37.2347 52.9544 38.28Z" fill="#252525"/>
<path d="M79.6303 50.922C79.0097 50.3993 78.585 49.746 78.3563 48.962C78.1603 48.178 78.0623 47.5083 78.0623 46.953C78.0623 46.267 78.144 45.679 78.3073 45.189C78.1767 45.189 77.8827 45.4503 77.4253 45.973C76.968 46.4957 76.4617 47.1163 75.9063 47.835C75.3837 48.5537 74.861 49.256 74.3383 49.942C73.8157 50.628 73.4237 51.1343 73.1623 51.461C72.7377 51.9183 72.3293 52.2777 71.9373 52.539C71.578 52.8003 71.284 52.9473 71.0553 52.98C70.5327 52.9473 69.9773 52.833 69.3893 52.637C68.834 52.4737 68.295 52.2287 67.7723 51.902C67.2823 51.5753 66.8413 51.1833 66.4493 50.726C66.09 50.2687 65.845 49.746 65.7143 49.158C65.7143 48.2433 65.7307 47.492 65.7633 46.904C65.8287 46.316 65.943 45.679 66.1063 44.993C66.4003 43.7517 66.825 42.347 67.3803 40.779C67.9683 39.211 68.638 37.6757 69.3893 36.173C70.1407 34.6377 70.9737 33.2167 71.8883 31.91C72.8357 30.5707 73.832 29.5253 74.8773 28.774C75.1713 28.774 75.5143 28.8067 75.9063 28.872C76.2983 28.9047 76.6903 28.9863 77.0823 29.117C77.507 29.2477 77.899 29.411 78.2583 29.607C78.6503 29.7703 78.977 29.999 79.2383 30.293C78.9443 30.6197 78.193 31.714 76.9843 33.576C75.8083 35.438 74.4853 38.1167 73.0153 41.612C72.852 41.9713 72.656 42.494 72.4273 43.18C72.1987 43.866 71.97 44.5847 71.7413 45.336C71.5127 46.0873 71.3167 46.8223 71.1533 47.541C71.0227 48.2597 70.9573 48.8313 70.9573 49.256C70.9573 49.5173 70.99 49.7133 71.0553 49.844C71.1533 49.9747 71.235 50.0727 71.3003 50.138C71.7903 49.942 72.411 49.403 73.1623 48.521C73.9137 47.639 74.959 46.2833 76.2983 44.454C76.625 43.9967 77.0007 43.474 77.4253 42.886C77.8827 42.298 78.34 41.6773 78.7973 41.024C79.2547 40.338 79.6793 39.6357 80.0713 38.917C80.496 38.1983 80.839 37.4797 81.1003 36.761C81.231 36.369 81.3943 35.9117 81.5903 35.389C81.819 34.8337 82.0803 34.262 82.3743 33.674C82.701 33.086 83.0603 32.498 83.4523 31.91C83.877 31.2893 84.367 30.7177 84.9223 30.195C85.347 30.195 85.8043 30.244 86.2943 30.342C86.7843 30.44 87.2417 30.5707 87.6663 30.734C88.1237 30.8647 88.5157 31.028 88.8423 31.224C89.169 31.3873 89.414 31.567 89.5773 31.763C88.9893 33.2003 88.336 34.6213 87.6173 36.026C86.8987 37.4307 86.229 38.819 85.6083 40.191C84.9877 41.5303 84.465 42.8697 84.0403 44.209C83.6157 45.5483 83.4033 46.855 83.4033 48.129C83.4033 48.815 83.4523 49.4193 83.5503 49.942C83.681 50.432 83.8117 50.8567 83.9423 51.216C84.073 51.5427 84.1873 51.8203 84.2853 52.049C84.416 52.2777 84.4813 52.4737 84.4813 52.637C84.4813 52.6697 84.4487 52.7187 84.3833 52.784C84.3507 52.8167 84.318 52.833 84.2853 52.833C84.0567 52.833 83.7627 52.784 83.4033 52.686C83.044 52.588 82.6357 52.441 82.1783 52.245C81.7537 52.0817 81.3127 51.8857 80.8553 51.657C80.4307 51.4283 80.0223 51.1833 79.6303 50.922Z" fill="#252525"/>
<path d="M90.57 43.376C90.57 41.514 90.9456 39.7173 91.697 37.986C92.481 36.222 93.4936 34.6703 94.735 33.331C96.009 31.959 97.4463 30.8647 99.047 30.048C100.68 29.1987 102.363 28.774 104.094 28.774C105.793 28.774 107.099 29.1987 108.014 30.048C108.929 30.8973 109.386 32.106 109.386 33.674C109.386 34.4253 109.272 35.1603 109.043 35.879C108.847 36.565 108.569 37.1857 108.21 37.741C107.883 38.2963 107.491 38.7537 107.034 39.113C106.577 39.4397 106.119 39.603 105.662 39.603C105.27 39.603 104.862 39.4887 104.437 39.26C104.045 38.9987 103.718 38.672 103.457 38.28C105.646 36.2873 106.74 34.4743 106.74 32.841C106.74 31.8937 106.364 31.42 105.613 31.42C104.96 31.42 104.143 31.7303 103.163 32.351C102.183 32.9717 101.236 33.7883 100.321 34.801C98.9163 36.369 97.8383 38.1167 97.087 40.044C96.3683 41.9387 96.009 43.9313 96.009 46.022C96.009 48.668 96.597 50.2523 97.773 50.775C98.263 50.7097 98.8346 50.5627 99.488 50.334C100.141 50.1053 100.844 49.8113 101.595 49.452C102.346 49.06 103.114 48.619 103.898 48.129C104.715 47.639 105.499 47.1163 106.25 46.561C106.381 46.659 106.495 46.806 106.593 47.002C106.691 47.198 106.74 47.3777 106.74 47.541C106.185 48.227 105.548 48.8967 104.829 49.55C104.11 50.2033 103.359 50.8077 102.575 51.363C101.791 51.8857 101.023 52.3267 100.272 52.686C99.5533 53.078 98.9163 53.323 98.361 53.421C97.283 53.323 96.2703 52.98 95.323 52.392C94.3756 51.8367 93.5426 51.1017 92.824 50.187C92.138 49.2723 91.5826 48.227 91.158 47.051C90.766 45.875 90.57 44.65 90.57 43.376Z" fill="#252525"/>
<path d="M110.803 51.167C110.803 50.0237 110.917 48.6843 111.146 47.149C111.375 45.581 111.701 43.915 112.126 42.151C112.583 40.387 113.106 38.5413 113.694 36.614C114.315 34.6867 115.001 32.7593 115.752 30.832C116.405 29.1007 117.157 27.353 118.006 25.589C118.888 23.825 119.835 22.0937 120.848 20.395C121.861 18.6963 122.906 17.0793 123.984 15.544C125.095 14.0087 126.205 12.604 127.316 11.33C127.839 11.33 128.394 11.3953 128.982 11.526C129.603 11.6567 127.594 13.4533 128.149 13.682C128.737 13.878 131.857 12.506 132.314 12.8C132.804 13.094 133.196 13.388 133.49 13.682C131.04 16.1973 128.835 18.7453 126.875 21.326C124.915 23.874 123.363 26.275 122.22 28.529C121.599 29.7703 121.028 30.93 120.505 32.008C120.015 33.086 119.558 34.164 119.133 35.242C118.708 36.2873 118.316 37.349 117.957 38.427C117.63 39.4723 117.32 40.583 117.026 41.759C123.298 33.7557 127.953 29.754 130.991 29.754C131.84 29.754 132.755 30.0317 133.735 30.587C134.715 31.1423 135.581 31.8937 136.332 32.841C135.319 33.9517 134.274 35.291 133.196 36.859C132.118 38.427 131.122 40.0113 130.207 41.612C129.325 43.18 128.59 44.65 128.002 46.022C127.447 47.3613 127.169 48.3577 127.169 49.011C127.169 49.3377 127.218 49.5663 127.316 49.697C127.414 49.795 127.626 49.844 127.953 49.844C128.443 49.844 128.835 49.7787 129.129 49.648C129.423 49.5173 129.603 49.452 129.668 49.452C129.831 49.7133 129.978 49.746 130.011 49.844C130.044 49.942 130.011 50.1707 130.011 50.236C130.011 50.3667 129.815 50.5627 129.423 50.824C129.031 51.0527 128.557 51.2977 128.002 51.559C127.479 51.7877 126.957 52 126.434 52.196C125.911 52.392 125.519 52.49 125.258 52.49C124.931 52.49 124.605 52.392 124.278 52.196C123.951 52.0327 123.657 51.804 123.396 51.51C123.167 51.216 122.971 50.8893 122.808 50.53C122.677 50.1707 122.612 49.795 122.612 49.403C122.612 48.913 122.743 48.1943 123.004 47.247C123.298 46.267 123.69 45.14 124.18 43.866C124.67 42.5593 125.258 41.1383 125.944 39.603C126.63 38.0677 127.365 36.4997 128.149 34.899C128.149 34.7683 128.084 34.703 127.953 34.703C127.855 34.703 127.594 34.8337 127.169 35.095C126.777 35.3563 126.401 35.6177 126.042 35.879C124.866 36.761 123.674 37.8553 122.465 39.162C121.289 40.436 120.129 41.8407 118.986 43.376C117.875 44.9113 116.814 46.5447 115.801 48.276C114.821 49.9747 113.972 51.6897 113.253 53.421C113.155 53.6497 113.008 53.862 112.812 54.058C112.616 54.254 112.453 54.352 112.322 54.352C112.224 54.352 112.077 54.2377 111.881 54.009C111.718 53.7803 111.554 53.4863 111.391 53.127C111.26 52.8003 111.13 52.4573 110.999 52.098C110.868 51.7387 110.803 51.4283 110.803 51.167Z" fill="#252525"/>
</g>
<defs>
<filter id="filter0_d_1_26" x="13.5454" y="11.33" width="251.446" height="52.639" filterUnits="userSpaceOnUse" color-interpolation-filters="sRGB">
<feFlood flood-opacity="0" result="BackgroundImageFix"/>
<feColorMatrix in="SourceAlpha" type="matrix" values="0 0 0 0 0 0 0 0 0 0 0 0 0 0 0 0 0 0 127 0" result="hardAlpha"/>
<feOffset dy="4"/>
<feGaussianBlur stdDeviation="2"/>
<feColorMatrix type="matrix" values="0 0 0 0 0 0 0 0 0 0 0 0 0 0 0 0 0 0 0.25 0"/>
<feBlend mode="normal" in2="BackgroundImageFix" result="effect1_dropShadow_1_26"/>
<feBlend mode="normal" in="SourceGraphic" in2="effect1_dropShadow_1_26" result="shape"/>
</filter>
</defs>
</svg>
